<mxfile host="65bd71144e">
    <diagram id="_2jcx-t62Wp5KSKA55ZE" name="Page-1">
        <mxGraphModel dx="1086" dy="527" grid="1" gridSize="10" guides="1" tooltips="1" connect="1" arrows="1" fold="1" page="1" pageScale="1" pageWidth="1700" pageHeight="1100" math="0" shadow="0">
            <root>
                <mxCell id="0"/>
                <mxCell id="1" parent="0"/>
                <mxCell id="14" style="edgeStyle=none;html=1;entryX=0.5;entryY=0;entryDx=0;entryDy=0;" edge="1" parent="1" source="2" target="3">
                    <mxGeometry relative="1" as="geometry"/>
                </mxCell>
                <mxCell id="2" value="utilisateur tape une recherche&amp;nbsp; &lt;br&gt;dans la barre principale" style="shape=ext;double=1;rounded=1;whiteSpace=wrap;html=1;" parent="1" vertex="1">
                    <mxGeometry x="30" y="70" width="210" height="70" as="geometry"/>
                </mxCell>
                <mxCell id="16" style="edgeStyle=none;html=1;startArrow=none;" edge="1" parent="1" source="5">
                    <mxGeometry relative="1" as="geometry">
                        <mxPoint x="135" y="520" as="targetPoint"/>
                    </mxGeometry>
                </mxCell>
                <mxCell id="19" style="edgeStyle=none;html=1;entryX=-0.002;entryY=0.595;entryDx=0;entryDy=0;startArrow=none;entryPerimeter=0;" edge="1" parent="1" source="4" target="18">
                    <mxGeometry relative="1" as="geometry"/>
                </mxCell>
                <mxCell id="3" value="&lt;p style=&quot;line-height: 1.3&quot;&gt;la valeur de sa&amp;nbsp;&lt;span&gt;recherche&amp;nbsp;&lt;/span&gt;&lt;/p&gt;&lt;p style=&quot;line-height: 1.3&quot;&gt;&lt;span&gt;contient plus de 3 caractères&lt;/span&gt;&lt;/p&gt;" style="rhombus;whiteSpace=wrap;html=1;rotation=0;" parent="1" vertex="1">
                    <mxGeometry x="40" y="235" width="190" height="170" as="geometry"/>
                </mxCell>
                <mxCell id="6" value="" style="shape=table;startSize=0;container=1;collapsible=0;childLayout=tableLayout;" parent="1" vertex="1">
                    <mxGeometry x="20" y="1090" width="500" height="100" as="geometry"/>
                </mxCell>
                <mxCell id="7" value="" style="shape=partialRectangle;collapsible=0;dropTarget=0;pointerEvents=0;fillColor=none;top=0;left=0;bottom=0;right=0;points=[[0,0.5],[1,0.5]];portConstraint=eastwest;" parent="6" vertex="1">
                    <mxGeometry width="500" height="40" as="geometry"/>
                </mxCell>
                <mxCell id="8" value="Légende&lt;span style=&quot;white-space: pre&quot;&gt;&#9;&lt;/span&gt;&lt;span style=&quot;white-space: pre&quot;&gt;&#9;&lt;/span&gt;" style="shape=partialRectangle;html=1;whiteSpace=wrap;connectable=0;overflow=hidden;fillColor=none;top=0;left=0;bottom=0;right=0;pointerEvents=1;align=left;" parent="7" vertex="1">
                    <mxGeometry width="500" height="40" as="geometry">
                        <mxRectangle width="500" height="40" as="alternateBounds"/>
                    </mxGeometry>
                </mxCell>
                <mxCell id="9" value="" style="shape=partialRectangle;collapsible=0;dropTarget=0;pointerEvents=0;fillColor=none;top=0;left=0;bottom=0;right=0;points=[[0,0.5],[1,0.5]];portConstraint=eastwest;" parent="6" vertex="1">
                    <mxGeometry y="40" width="500" height="60" as="geometry"/>
                </mxCell>
                <mxCell id="10" value="&lt;p style=&quot;line-height: 1.8&quot;&gt;Utilisation de la méthode filter pour générer un nouveau tableau si la valeur de la recherche&lt;br&gt;correspond à une valeur liée aux ingrédients/&amp;nbsp; ustensils/&amp;nbsp; appareils&amp;nbsp; d'une recette&lt;/p&gt;" style="shape=partialRectangle;html=1;whiteSpace=wrap;connectable=0;overflow=hidden;fillColor=none;top=0;left=0;bottom=0;right=0;pointerEvents=1;align=left;" parent="9" vertex="1">
                    <mxGeometry width="500" height="60" as="geometry">
                        <mxRectangle width="500" height="60" as="alternateBounds"/>
                    </mxGeometry>
                </mxCell>
                <mxCell id="23" style="edgeStyle=none;html=1;startArrow=none;entryX=0.001;entryY=0.613;entryDx=0;entryDy=0;entryPerimeter=0;" edge="1" parent="1" source="25" target="22">
                    <mxGeometry relative="1" as="geometry">
                        <mxPoint x="680" y="615" as="targetPoint"/>
                    </mxGeometry>
                </mxCell>
                <mxCell id="28" style="edgeStyle=none;html=1;startArrow=none;" edge="1" parent="1" source="29">
                    <mxGeometry relative="1" as="geometry">
                        <mxPoint x="475" y="740" as="targetPoint"/>
                    </mxGeometry>
                </mxCell>
                <mxCell id="12" value="&lt;p style=&quot;line-height: 1.3&quot;&gt;les recettes inclues&amp;nbsp;&lt;/p&gt;&lt;p style=&quot;line-height: 1.3&quot;&gt;le résultat de la recherche&amp;nbsp;&lt;/p&gt;" style="rhombus;whiteSpace=wrap;html=1;rotation=0;" vertex="1" parent="1">
                    <mxGeometry x="380" y="470" width="190" height="170" as="geometry"/>
                </mxCell>
                <mxCell id="13" value="&lt;p style=&quot;line-height: 1.3&quot;&gt;affichage de toutes les recettes&amp;nbsp;&lt;/p&gt;" style="shape=ext;double=1;rounded=1;whiteSpace=wrap;html=1;" vertex="1" parent="1">
                    <mxGeometry x="30" y="520" width="210" height="80" as="geometry"/>
                </mxCell>
                <mxCell id="5" value="non" style="text;html=1;align=center;verticalAlign=middle;resizable=0;points=[];autosize=1;strokeColor=#C73500;fillColor=#fa6800;sketch=0;shadow=0;fontColor=#000000;" parent="1" vertex="1">
                    <mxGeometry x="120" y="450" width="30" height="20" as="geometry"/>
                </mxCell>
                <mxCell id="17" value="" style="edgeStyle=none;html=1;endArrow=none;" edge="1" parent="1" source="3" target="5">
                    <mxGeometry relative="1" as="geometry">
                        <mxPoint x="135" y="550" as="targetPoint"/>
                        <mxPoint x="135" y="405" as="sourcePoint"/>
                    </mxGeometry>
                </mxCell>
                <mxCell id="21" style="edgeStyle=none;html=1;" edge="1" parent="1" source="18">
                    <mxGeometry relative="1" as="geometry">
                        <mxPoint x="475" y="470" as="targetPoint"/>
                    </mxGeometry>
                </mxCell>
                <mxCell id="18" value="&lt;p style=&quot;line-height: 1.3&quot;&gt;l'algorithme boucle sur chaque recette et test s'il y a une correspondance avec les filtres ou la recherche utililsateur&amp;nbsp;&lt;/p&gt;" style="shape=ext;double=1;rounded=1;whiteSpace=wrap;html=1;" vertex="1" parent="1">
                    <mxGeometry x="370" y="275" width="210" height="75" as="geometry"/>
                </mxCell>
                <mxCell id="4" value="oui" style="text;html=1;align=center;verticalAlign=middle;resizable=0;points=[];autosize=1;strokeColor=#BD7000;fillColor=#f0a30a;sketch=0;shadow=0;fontColor=#000000;" parent="1" vertex="1">
                    <mxGeometry x="280" y="310" width="30" height="20" as="geometry"/>
                </mxCell>
                <mxCell id="20" value="" style="edgeStyle=none;html=1;entryX=0;entryY=0.5;entryDx=0;entryDy=0;endArrow=none;" edge="1" parent="1" source="3" target="4">
                    <mxGeometry relative="1" as="geometry">
                        <mxPoint x="230" y="320" as="sourcePoint"/>
                        <mxPoint x="340" y="320" as="targetPoint"/>
                    </mxGeometry>
                </mxCell>
                <mxCell id="27" style="edgeStyle=none;html=1;" edge="1" parent="1" source="22">
                    <mxGeometry relative="1" as="geometry">
                        <mxPoint x="805" y="790" as="targetPoint"/>
                    </mxGeometry>
                </mxCell>
                <mxCell id="44" style="edgeStyle=orthogonalEdgeStyle;curved=1;html=1;startArrow=classic;startFill=1;endArrow=none;endFill=0;elbow=vertical;" edge="1" parent="1" source="22">
                    <mxGeometry relative="1" as="geometry">
                        <mxPoint x="970" y="550" as="targetPoint"/>
                    </mxGeometry>
                </mxCell>
                <mxCell id="22" value="&lt;p style=&quot;line-height: 1.3&quot;&gt;affichage du message d'erreur&amp;nbsp;&lt;/p&gt;" style="shape=ext;double=1;rounded=1;whiteSpace=wrap;html=1;" vertex="1" parent="1">
                    <mxGeometry x="700" y="510" width="210" height="80" as="geometry"/>
                </mxCell>
                <mxCell id="25" value="non" style="text;html=1;align=center;verticalAlign=middle;resizable=0;points=[];autosize=1;strokeColor=#C73500;fillColor=#fa6800;sketch=0;shadow=0;fontColor=#000000;" vertex="1" parent="1">
                    <mxGeometry x="620" y="550" width="30" height="20" as="geometry"/>
                </mxCell>
                <mxCell id="26" value="" style="edgeStyle=none;html=1;entryX=0;entryY=0.5;entryDx=0;entryDy=0;endArrow=none;" edge="1" parent="1" source="12" target="25">
                    <mxGeometry relative="1" as="geometry">
                        <mxPoint x="570" y="615" as="sourcePoint"/>
                        <mxPoint x="710" y="615" as="targetPoint"/>
                        <Array as="points">
                            <mxPoint x="620" y="560"/>
                        </Array>
                    </mxGeometry>
                </mxCell>
                <mxCell id="29" value="oui" style="text;html=1;align=center;verticalAlign=middle;resizable=0;points=[];autosize=1;strokeColor=#BD7000;fillColor=#f0a30a;sketch=0;shadow=0;fontColor=#000000;" vertex="1" parent="1">
                    <mxGeometry x="460" y="670" width="30" height="20" as="geometry"/>
                </mxCell>
                <mxCell id="30" value="" style="edgeStyle=none;html=1;endArrow=none;" edge="1" parent="1" source="12">
                    <mxGeometry relative="1" as="geometry">
                        <mxPoint x="475" y="670" as="targetPoint"/>
                        <mxPoint x="475" y="699.9999999999998" as="sourcePoint"/>
                    </mxGeometry>
                </mxCell>
                <mxCell id="33" style="edgeStyle=none;html=1;" edge="1" parent="1" source="31">
                    <mxGeometry relative="1" as="geometry">
                        <mxPoint x="475" y="890" as="targetPoint"/>
                    </mxGeometry>
                </mxCell>
                <mxCell id="31" value="&lt;p style=&quot;line-height: 1.3&quot;&gt;la / les recette(s) sont ajouté(s) au tableau&amp;nbsp;&amp;nbsp;&lt;/p&gt;" style="shape=ext;double=1;rounded=1;whiteSpace=wrap;html=1;" vertex="1" parent="1">
                    <mxGeometry x="370" y="740" width="210" height="80" as="geometry"/>
                </mxCell>
                <mxCell id="34" value="&lt;p style=&quot;line-height: 1.3&quot;&gt;la / les recette(s) correspondante à la recherche est / sont affiché(s)&amp;nbsp;&lt;br&gt;&lt;/p&gt;" style="shape=ext;double=1;rounded=1;whiteSpace=wrap;html=1;" vertex="1" parent="1">
                    <mxGeometry x="370" y="890" width="210" height="70" as="geometry"/>
                </mxCell>
                <mxCell id="37" style="edgeStyle=orthogonalEdgeStyle;html=1;entryX=0.381;entryY=1;entryDx=0;entryDy=0;entryPerimeter=0;elbow=vertical;curved=1;" edge="1" parent="1" source="35" target="13">
                    <mxGeometry relative="1" as="geometry">
                        <Array as="points">
                            <mxPoint x="805" y="1000"/>
                            <mxPoint x="110" y="1000"/>
                        </Array>
                    </mxGeometry>
                </mxCell>
                <mxCell id="41" style="edgeStyle=orthogonalEdgeStyle;curved=1;html=1;elbow=vertical;endArrow=none;endFill=0;" edge="1" parent="1" source="35">
                    <mxGeometry relative="1" as="geometry">
                        <mxPoint x="970" y="855" as="targetPoint"/>
                    </mxGeometry>
                </mxCell>
                <mxCell id="35" value="utilisateur efface la requete" style="rhombus;whiteSpace=wrap;html=1;rotation=0;gradientColor=none;" vertex="1" parent="1">
                    <mxGeometry x="720" y="790" width="170" height="130" as="geometry"/>
                </mxCell>
                <mxCell id="38" value="oui" style="text;html=1;align=center;verticalAlign=middle;resizable=0;points=[];autosize=1;strokeColor=#BD7000;fillColor=#f0a30a;sketch=0;shadow=0;fontColor=#000000;" vertex="1" parent="1">
                    <mxGeometry x="660" y="980" width="30" height="20" as="geometry"/>
                </mxCell>
                <mxCell id="43" style="edgeStyle=none;html=1;endArrow=none;endFill=0;startArrow=none;exitX=0.334;exitY=1.018;exitDx=0;exitDy=0;exitPerimeter=0;" edge="1" parent="1" source="24">
                    <mxGeometry relative="1" as="geometry">
                        <mxPoint x="970" y="856" as="targetPoint"/>
                        <mxPoint x="970" y="710" as="sourcePoint"/>
                    </mxGeometry>
                </mxCell>
                <mxCell id="24" value="non" style="text;html=1;align=center;verticalAlign=middle;resizable=0;points=[];autosize=1;strokeColor=#C73500;fillColor=#fa6800;sketch=0;shadow=0;fontColor=#000000;" vertex="1" parent="1">
                    <mxGeometry x="960" y="670" width="30" height="20" as="geometry"/>
                </mxCell>
                <mxCell id="46" value="" style="edgeStyle=none;html=1;endArrow=none;endFill=0;" edge="1" parent="1">
                    <mxGeometry relative="1" as="geometry">
                        <mxPoint x="970" y="670" as="targetPoint"/>
                        <mxPoint x="970" y="550" as="sourcePoint"/>
                    </mxGeometry>
                </mxCell>
            </root>
        </mxGraphModel>
    </diagram>
</mxfile>